<?xml version="1.0" standalone="no"?>
<!DOCTYPE svg PUBLIC "-//W3C//DTD SVG 20010904//EN"
 "http://www.w3.org/TR/2001/REC-SVG-20010904/DTD/svg10.dtd">
<svg version="1.0" xmlns="http://www.w3.org/2000/svg"
 width="512.000000pt" height="512.000000pt" viewBox="0 0 512.000000 512.000000"
 preserveAspectRatio="xMidYMid meet">
<metadata>
Created by potrace 1.16, written by Peter Selinger 2001-2019
</metadata>
<g transform="translate(0.000000,512.000000) scale(0.100000,-0.100000)"
fill="#000000" stroke="none">
<path d="M2390 4444 c-73 -19 -143 -54 -210 -104 -102 -77 -118 -82 -286 -89
-137 -7 -156 -10 -207 -35 -57 -27 -117 -87 -117 -116 0 -18 158 -61 313 -85
131 -20 188 -48 272 -135 66 -69 67 -72 63 -115 -8 -64 -39 -106 -149 -201
-55 -47 -123 -115 -151 -150 -40 -50 -69 -74 -127 -105 -284 -152 -486 -343
-680 -638 -167 -256 -241 -427 -241 -563 0 -68 3 -80 26 -107 46 -54 117 -50
191 13 18 15 68 74 112 131 109 140 228 238 411 338 l65 36 0 -217 c0 -132 6
-246 14 -292 21 -122 66 -287 111 -405 108 -286 140 -375 146 -413 4 -28 12
-42 26 -45 16 -4 19 -13 16 -43 -4 -44 -35 -71 -166 -142 -88 -48 -152 -101
-152 -125 0 -14 7 -14 57 4 31 10 67 19 80 19 20 0 23 -3 17 -26 -7 -26 -6
-27 37 -20 24 3 96 11 159 16 63 6 142 18 175 27 33 9 87 15 120 14 69 -2 101
14 91 46 -3 11 -25 44 -47 74 -37 49 -40 58 -36 102 14 160 231 153 405 -14
l64 -60 -31 -101 c-17 -55 -28 -104 -25 -110 8 -12 38 -1 97 35 56 35 66 32
139 -32 25 -22 50 -41 55 -41 4 1 23 21 41 45 18 25 38 45 45 45 7 0 36 -11
65 -25 78 -36 86 -34 80 19 -6 54 -36 116 -102 215 -46 69 -51 81 -50 131 0
62 50 232 95 325 34 71 73 218 91 342 l13 87 132 63 c100 47 136 69 143 87 6
18 -1 55 -31 151 -21 70 -39 132 -39 139 1 18 46 -41 147 -194 138 -207 236
-303 294 -285 27 9 49 56 49 107 0 164 -176 585 -357 855 -70 104 -222 281
-314 363 -43 40 -79 76 -79 82 0 22 -88 196 -143 282 -69 109 -94 183 -100
302 -9 161 -74 312 -176 414 -121 120 -284 166 -441 124z m259 -59 c28 -16 59
-37 68 -48 13 -15 9 -14 -17 5 -102 75 -258 76 -419 3 -64 -30 -71 -31 -40 -6
108 83 299 105 408 46z m-432 -123 c-23 -22 -97 -43 -97 -26 1 5 19 23 42 40
34 26 45 30 60 21 17 -11 17 -13 -5 -35z m396 -30 c75 -50 117 -95 147 -158
35 -72 21 -131 -50 -207 l-41 -45 35 -12 c53 -17 86 -47 86 -79 0 -37 -26 -71
-56 -71 -40 0 -32 -22 48 -127 81 -108 127 -220 192 -471 l35 -133 -22 -8
c-45 -17 -129 -23 -152 -11 -19 10 -33 6 -113 -42 -70 -41 -91 -58 -92 -75 0
-27 -4 -28 -245 -50 -175 -15 -192 -19 -214 -41 -26 -26 -27 -13 9 -197 12
-60 25 -144 30 -185 10 -90 25 -132 84 -248 71 -136 88 -152 213 -201 96 -38
114 -49 164 -102 39 -41 64 -59 81 -59 14 0 82 27 151 60 69 33 130 60 136 60
7 0 9 -10 6 -22 -2 -13 -21 -90 -40 -173 -20 -82 -47 -206 -61 -275 -21 -105
-29 -129 -51 -148 -16 -14 -32 -21 -42 -17 -9 4 -21 9 -27 12 -6 2 -19 -14
-28 -36 -9 -23 -18 -41 -20 -41 -3 0 -17 20 -31 44 -20 34 -38 49 -84 70 -102
45 -142 56 -211 56 -78 0 -124 -14 -200 -61 -44 -27 -65 -34 -107 -34 -86 0
-112 38 -201 285 -107 300 -135 456 -135 760 0 493 79 895 217 1103 20 30 86
104 146 163 105 103 121 126 134 187 4 15 12 29 19 31 7 2 48 11 92 21 209 45
357 174 315 276 -8 19 -26 37 -45 45 -28 11 -40 10 -94 -7 -77 -24 -109 -24
-142 -1 -36 24 -134 122 -122 122 5 0 28 16 51 35 91 79 127 80 235 7z m-558
-22 c-11 -5 -60 -8 -110 -8 l-90 2 70 6 c110 10 154 10 130 0z m-243 -16 c-5
-8 -52 -30 -105 -48 -96 -32 -97 -32 -74 -8 47 52 204 101 179 56z m248 -44
c6 -11 34 -27 66 -37 71 -22 55 -29 -23 -9 -90 23 -181 36 -271 37 -45 1 -82
3 -82 5 0 12 81 22 182 23 107 1 118 -1 128 -19z m-85 -56 c71 -9 157 -14 190
-11 88 8 45 -9 -59 -24 -77 -11 -99 -10 -175 5 -48 10 -132 24 -187 31 l-99
12 100 2 c54 0 158 -6 230 -15z m281 -442 c-8 -15 -24 -36 -36 -47 -16 -14
-12 -5 11 28 37 53 46 60 25 19z m778 -63 c31 -24 73 -86 78 -115 3 -16 -3
-18 -34 -16 -28 3 -39 -1 -47 -17 -18 -32 -13 -134 10 -206 11 -37 18 -69 16
-72 -7 -6 -39 102 -77 255 -30 123 -36 173 -23 185 13 14 51 7 77 -14z m-961
-95 c-218 -201 -281 -341 -365 -813 l-13 -74 -92 -51 c-173 -97 -285 -171
-375 -251 -133 -118 -168 -143 -220 -160 -95 -33 -110 4 -58 146 89 244 382
639 611 821 66 53 228 152 236 145 10 -10 -8 -27 -100 -96 -124 -93 -226 -189
-342 -321 -106 -121 -271 -337 -323 -423 -47 -77 -102 -207 -102 -239 0 -24 4
-28 28 -28 58 1 114 40 260 182 163 158 233 214 368 294 50 29 96 59 102 66 6
8 18 56 27 108 51 307 127 491 264 640 57 62 171 153 181 144 2 -3 -36 -43
-87 -90z m1256 -318 c80 -75 261 -288 322 -380 124 -185 221 -411 243 -566 4
-31 -1 -19 -19 39 -38 124 -89 236 -170 376 -85 146 -127 200 -335 435 -85 96
-162 184 -170 195 -18 24 67 -42 129 -99z m-1624 -102 c-32 -20 -80 -49 -105
-66 l-45 -29 34 28 c42 34 152 103 166 103 6 0 -17 -16 -50 -36z m1540 -80
c24 -94 16 -97 -11 -4 -13 47 -24 87 -24 90 1 16 22 -36 35 -86z m-24 -99 c21
-47 39 -96 39 -108 0 -24 -59 -229 -136 -474 -41 -131 -47 -143 -72 -150 -19
-4 -40 1 -77 22 -64 35 -130 58 -280 96 -226 57 -226 57 -279 113 -39 41 -47
46 -42 26 19 -65 66 -277 66 -296 0 -11 14 -42 31 -69 17 -27 45 -79 63 -115
l31 -67 -79 36 c-71 32 -83 42 -114 90 -19 30 -55 97 -79 148 -37 78 -46 109
-54 186 -5 51 -19 144 -32 207 -12 63 -21 123 -19 132 2 11 16 19 35 22 78 11
399 37 404 33 3 -3 -11 -16 -31 -29 -20 -13 -36 -28 -36 -35 0 -25 -48 -47
-192 -87 -68 -19 -84 -41 -69 -89 6 -18 21 -103 35 -190 13 -87 27 -161 29
-164 12 -12 19 95 12 180 -12 140 -12 141 -7 155 5 15 131 98 332 220 74 44
207 129 295 186 88 58 166 106 173 106 7 0 31 -38 53 -85z m191 -27 c95 -117
192 -250 232 -320 37 -65 27 -60 -19 10 -21 31 -95 131 -165 222 -69 91 -130
171 -134 178 -19 33 9 3 86 -90z m-583 8 c10 -11 -4 -22 -73 -60 -92 -50 -96
-52 -96 -33 0 6 35 33 78 59 42 25 78 47 78 47 1 1 7 -5 13 -13z m83 -18 c-9
-9 -15 -9 -24 0 -9 9 -7 12 12 12 19 0 21 -3 12 -12z m-67 -43 c-16 -14 -63
-46 -104 -71 -41 -25 -86 -53 -100 -62 -26 -17 -26 -17 3 18 16 19 67 58 115
87 91 55 138 70 86 28z m614 -160 c37 -44 86 -106 109 -137 60 -82 235 -351
223 -344 -5 4 -60 77 -122 164 -145 203 -216 291 -305 377 -47 45 -75 81 -79
100 -6 29 -4 28 50 -25 32 -30 87 -91 124 -135z m143 53 c44 -66 142 -248 136
-253 -2 -2 -17 22 -33 53 -31 61 -99 179 -129 225 -10 15 -16 27 -14 27 3 0
21 -24 40 -52z m-181 -99 c8 -16 35 -78 56 -129 14 -32 14 -33 -2 -20 -16 14
-17 12 -10 -20 4 -19 25 -96 46 -170 21 -74 39 -139 39 -143 0 -4 -11 0 -25
10 -13 10 -25 24 -25 31 0 15 -65 175 -130 321 -31 71 -39 101 -34 120 11 40
11 40 13 52 1 13 61 -30 72 -52z m-139 -26 c41 -44 203 -383 183 -383 -2 0
-29 18 -60 39 -30 21 -96 54 -145 72 -50 19 -89 38 -87 44 2 5 19 65 37 133
18 67 36 122 40 122 3 0 18 -12 32 -27z m36 -8 c-3 -3 -9 2 -12 12 -6 14 -5
15 5 6 7 -7 10 -15 7 -18z m-898 -19 c0 -1 -22 -17 -50 -34 -45 -28 -50 -29
-50 -12 0 22 11 30 54 41 39 9 46 10 46 5z m74 -331 c38 -55 86 -118 107 -140
34 -35 42 -55 69 -159 17 -65 29 -120 27 -122 -6 -7 -31 28 -134 181 -79 118
-90 141 -119 244 -18 62 -29 109 -25 105 4 -5 38 -54 75 -109z m773 56 c89
-35 134 -62 213 -133 l53 -46 -29 -15 c-16 -8 -158 -74 -316 -145 -158 -72
-314 -145 -347 -162 -33 -16 -67 -30 -75 -30 -34 0 -34 114 -1 314 14 82 27
151 30 154 6 6 117 -34 177 -64 91 -46 131 -24 169 95 13 39 28 70 34 67 5 -2
47 -18 92 -35z m-637 -11 c69 -18 128 -36 132 -39 4 -3 -5 -80 -21 -171 l-28
-165 -23 78 c-16 54 -35 91 -60 120 -34 39 -136 175 -155 206 -6 11 -3 13 11
9 10 -3 75 -20 144 -38z m-360 -1177 c0 -41 8 -74 25 -111 14 -30 25 -56 25
-58 0 -2 -13 -1 -30 2 -16 4 -60 -1 -97 -10 -37 -9 -111 -20 -163 -25 -52 -5
-108 -14 -124 -21 -26 -10 -28 -9 -16 5 18 22 70 47 155 76 l70 23 -43 10
c-38 8 -53 5 -120 -22 -137 -55 -163 -55 -60 0 35 18 80 50 101 71 l37 37 95
-6 c62 -5 95 -3 95 3 0 6 -40 14 -89 17 l-90 7 11 25 c9 19 16 23 32 17 28 -9
117 -6 147 6 38 15 39 14 39 -46z m664 36 c37 -12 69 -18 87 -14 22 5 29 3 29
-8 0 -20 -31 -27 -119 -27 -54 0 -72 -3 -64 -11 11 -11 152 -8 188 5 16 5 26
-4 56 -51 34 -54 64 -123 54 -123 -3 0 -23 16 -45 36 -39 35 -40 36 -40 13 -1
-13 -9 -40 -19 -59 l-19 -35 -11 40 c-6 22 -20 54 -32 70 l-21 30 6 -40 c3
-22 8 -56 12 -75 l6 -35 -56 57 -56 57 -42 -39 c-24 -21 -44 -38 -45 -36 -1 1
4 26 12 56 8 30 15 81 15 113 0 61 12 97 33 97 7 0 39 -9 71 -21z"/>
<path d="M2427 4212 c-23 -25 -21 -58 3 -82 26 -26 51 -25 84 1 32 25 33 49 3
77 -28 27 -68 28 -90 4z m78 -21 c3 -5 1 -12 -5 -16 -5 -3 -10 -1 -10 4 0 6
-5 11 -11 11 -6 0 -9 -7 -5 -15 3 -8 1 -15 -4 -15 -6 0 -10 9 -10 20 0 21 33
29 45 11z"/>
<path d="M1857 2055 c18 -151 63 -330 103 -413 51 -107 115 -197 174 -245 45
-38 166 -111 166 -101 0 3 -35 42 -78 87 -182 191 -273 355 -343 617 -19 70
-27 88 -22 55z"/>
<path d="M2115 1820 c17 -62 103 -178 149 -202 22 -11 16 -2 -56 77 -15 17
-43 57 -63 90 -20 33 -34 49 -30 35z"/>
<path d="M2471 1422 c114 -65 171 -105 203 -142 14 -18 26 -29 26 -25 0 16
-55 112 -74 128 -11 10 -15 16 -8 12 11 -6 12 -3 3 14 -14 25 -23 28 -14 4 5
-13 3 -15 -13 -8 -34 15 -148 52 -179 59 -18 4 3 -12 56 -42z"/>
<path d="M2222 2605 c0 -16 2 -22 5 -12 2 9 2 23 0 30 -3 6 -5 -1 -5 -18z"/>
<path d="M2232 2550 c0 -14 2 -19 5 -12 2 6 2 18 0 25 -3 6 -5 1 -5 -13z"/>
<path d="M2243 2475 c0 -22 2 -30 4 -17 2 12 2 30 0 40 -3 9 -5 -1 -4 -23z"/>
</g>
</svg>